<svg width="24" height="24" viewBox="0 0 24 24" fill="none" xmlns="http://www.w3.org/2000/svg">
<g clip-path="url(#clip0_513_34)">
<path d="M7.64031 17.8012C7.79409 17.6465 7.88041 17.4372 7.88041 17.2191C7.88041 17.0009 7.79409 16.7917 7.64031 16.637L3.84217 12.8471H23.287C23.506 12.8471 23.716 12.7601 23.8708 12.6052C24.0257 12.4504 24.1127 12.2404 24.1127 12.0214C24.1127 11.8024 24.0257 11.5924 23.8708 11.4376C23.716 11.2827 23.506 11.1957 23.287 11.1957H3.86694L7.64031 7.42235C7.79688 7.26687 7.88528 7.05556 7.88606 6.8349C7.88683 6.61425 7.79992 6.40232 7.64444 6.24575C7.48896 6.08918 7.27765 6.00078 7.057 6.00001C6.83634 5.99923 6.62442 6.08614 6.46784 6.24162L1.2165 11.5012C1.07785 11.6405 1 11.829 1 12.0255C1 12.222 1.07785 12.4106 1.2165 12.5498L6.46784 17.8012C6.5446 17.8786 6.63592 17.94 6.73654 17.9819C6.83716 18.0238 6.94508 18.0454 7.05408 18.0454C7.16308 18.0454 7.271 18.0238 7.37161 17.9819C7.47223 17.94 7.56355 17.8786 7.64031 17.8012Z" fill="white"/>
</g>
<defs>
<clipPath id="clip0_513_34">
<rect width="24" height="24" fill="white"/>
</clipPath>
</defs>
</svg>
