<svg width="69" height="26" viewBox="0 0 69 26" fill="none" xmlns="http://www.w3.org/2000/svg">
<path d="M0.484 24.992V3.932C0.484 3.092 0.784 2.36 1.384 1.736C1.984 1.112 2.728 0.799998 3.616 0.799998H4.768C5.056 0.799998 5.38 0.859998 5.74 0.979998C6.1 1.076 6.472 1.388 6.856 1.916C8.272 4.124 9.544 6.116 10.672 7.892C11.368 8.972 11.908 9.836 12.292 10.484C12.7 11.108 13.072 11.696 13.408 12.248C13.768 12.776 14.068 13.232 14.308 13.616C14.548 14 14.692 14.228 14.74 14.3C14.788 14.348 14.848 14.372 14.92 14.372C15.04 14.372 15.1 14.312 15.1 14.192V3.932C15.1 3.452 15.184 3.02 15.352 2.636C15.544 2.252 15.784 1.928 16.072 1.664C16.36 1.4 16.696 1.196 17.08 1.052C17.464 0.883999 17.848 0.799998 18.232 0.799998H20.572C20.836 0.799998 21.04 0.883999 21.184 1.052C21.352 1.22 21.436 1.448 21.436 1.736V24.956C21.436 25.22 21.352 25.436 21.184 25.604C21.04 25.796 20.836 25.892 20.572 25.892H16.504C15.928 25.892 15.52 25.664 15.28 25.208C13.84 23 12.544 21.02 11.392 19.268C10.672 18.212 10.108 17.372 9.7 16.748C9.292 16.1 8.908 15.512 8.548 14.984C8.212 14.432 7.924 13.976 7.684 13.616C7.444 13.232 7.3 13.004 7.252 12.932C7.18 12.86 7.12 12.824 7.072 12.824C6.928 12.824 6.856 12.884 6.856 13.004V24.992C6.856 25.28 6.772 25.508 6.604 25.676C6.436 25.82 6.208 25.892 5.92 25.892H1.384C1.144 25.892 0.928 25.808 0.736 25.64C0.568 25.448 0.484 25.232 0.484 24.992ZM26.2192 24.992V3.932C26.2192 3.476 26.3032 3.056 26.4712 2.672C26.6632 2.288 26.9032 1.964 27.1912 1.7C27.4792 1.412 27.8152 1.196 28.1992 1.052C28.5832 0.883999 28.9672 0.799998 29.3512 0.799998H43.7872C44.0272 0.799998 44.2432 0.895998 44.4352 1.088C44.6272 1.28 44.7232 1.496 44.7232 1.736V5.552C44.7232 5.816 44.6272 6.02 44.4352 6.164C44.2672 6.332 44.0512 6.416 43.7872 6.416H30.8272C31.3552 6.416 31.8112 6.608 32.1952 6.992C32.6032 7.376 32.8072 7.832 32.8072 8.36V11.42H41.4472C42.0712 11.42 42.3832 11.732 42.3832 12.356V16.136C42.3832 16.424 42.2992 16.652 42.1312 16.82C41.9632 16.964 41.7352 17.036 41.4472 17.036H30.8272C31.3072 17.036 31.7512 17.216 32.1592 17.576C32.5912 17.936 32.8072 18.392 32.8072 18.944V24.992C32.8072 25.256 32.7232 25.472 32.5552 25.64C32.4112 25.808 32.1952 25.892 31.9072 25.892H27.1192C26.8552 25.892 26.6392 25.808 26.4712 25.64C26.3032 25.472 26.2192 25.256 26.2192 24.992ZM67.2626 0.799998C67.8866 0.799998 68.1986 1.112 68.1986 1.736V5.732C68.1986 6.02 68.1146 6.236 67.9466 6.38C67.7786 6.548 67.5506 6.632 67.2626 6.632H58.9466C59.4746 6.632 59.9426 6.824 60.3506 7.208C60.7586 7.592 60.9626 8.024 60.9626 8.504V24.992C60.9626 25.28 60.8786 25.508 60.7106 25.676C60.5426 25.82 60.3146 25.892 60.0266 25.892H55.0586C54.8186 25.892 54.6026 25.808 54.4106 25.64C54.2186 25.472 54.1226 25.256 54.1226 24.992V7.748C54.1226 7.412 54.0026 7.148 53.7626 6.956C53.5466 6.74 53.3066 6.632 53.0426 6.632H47.8226C47.5346 6.632 47.3066 6.548 47.1386 6.38C46.9706 6.236 46.8866 6.02 46.8866 5.732V3.896C46.8866 2.96 47.2106 2.216 47.8586 1.664C48.5066 1.088 49.2266 0.799998 50.0186 0.799998H67.2626Z" fill="url(#paint0_linear_123_14)"/>
<defs>
<linearGradient id="paint0_linear_123_14" x1="-2" y1="-8" x2="69" y2="-8" gradientUnits="userSpaceOnUse">
<stop stop-color="#FD4848"/>
<stop offset="0.982292" stop-color="#A803C2"/>
</linearGradient>
</defs>
</svg>
